ffmpeg started on 2025-03-17 at 12:11:08
Report written to "D:\Convert\FFMetrics\reports\psnr_report-6.txt"
Log level: 32
Command line:
ffmpeg -hide_banner -nostdin -r 24000/1001 -i "E:\\Convert\\out\\Re_Zero_[01]_[ru_jp]_[Zendos_&_Eladiel]_[HDTV_720p]_HEVC.mkv" -r 24000/1001 -i "E:\\Convert\\files\\Re_Zero_[01]_[ru_jp]_[Zendos_&_Eladiel]_[HDTV_720p].mkv" -lavfi "[0:v]settb=AVTB,setpts=PTS-STARTPTS,format=pix_fmts=yuv420p,fps=24000/1001,scale=1280:720:flags=bicubic[main];[1:v]settb=AVTB,setpts=PTS-STARTPTS,format=pix_fmts=yuv420p,fps=24000/1001,scale=1280:720:flags=bicubic[ref];[main][ref]psnr=eof_action=endall:stats_file='D\\:/Convert/FFMetrics/logs/psnr_logfile-6.txt'" -f null -
Input #0, matroska,webm, from 'E:\Convert\out\Re_Zero_[01]_[ru_jp]_[Zendos_&_Eladiel]_[HDTV_720p]_HEVC.mkv':
  Metadata:
    COMPATIBLE_BRANDS: isomiso2avc1mp41
    MAJOR_BRAND     : isom
    MINOR_VERSION   : 512
    ENCODER         : Lavf58.45.100
  Duration: 00:49:29.69, start: 0.000000, bitrate: 1211 kb/s
  Stream #0:0: Video: hevc (Main), yuv420p(tv), 1280x720 [SAR 1:1 DAR 16:9], 25 fps, 25 tbr, 1k tbn (default)
      Metadata:
        HANDLER_NAME    : VideoHandler
        ENCODER         : Lavc58.91.100 libx265
        BPS             : 1152005
        DURATION        : 00:49:29.686000000
        NUMBER_OF_FRAMES: 71200
        NUMBER_OF_BYTES : 427636681
        _STATISTICS_WRITING_APP: mkvpropedit v66.0.0 ('Josie') 64-bit
        _STATISTICS_WRITING_DATE_UTC: 2025-02-15 15:28:01
        _STATISTICS_TAGS: BPS DURATION NUMBER_OF_FRAMES NUMBER_OF_BYTES
  Stream #0:1(rus): Audio: aac (LC), 44100 Hz, mono, fltp (default)
      Metadata:
        HANDLER_NAME    : SoundHandler
        ENCODER         : Lavc58.91.100 libfdk_aac
        BPS             : 56000
        DURATION        : 00:49:29.668000000
        NUMBER_OF_FRAMES: 127894
        NUMBER_OF_BYTES : 20787851
        _STATISTICS_WRITING_APP: mkvpropedit v66.0.0 ('Josie') 64-bit
        _STATISTICS_WRITING_DATE_UTC: 2025-02-15 15:28:01
        _STATISTICS_TAGS: BPS DURATION NUMBER_OF_FRAMES NUMBER_OF_BYTES
Input #1, matroska,webm, from 'E:\Convert\files\Re_Zero_[01]_[ru_jp]_[Zendos_&_Eladiel]_[HDTV_720p].mkv':
  Metadata:
    encoder         : libebml v1.4.2 + libmatroska v1.6.4
    creation_time   : 2024-12-27T10:01:46.000000Z
  Duration: 00:49:29.64, start: 0.000000, bitrate: 2001 kb/s
  Stream #1:0(jpn): Video: h264 (High), yuv420p(tv, bt709, progressive), 1280x720 [SAR 1:1 DAR 16:9], 23.98 fps, 23.98 tbr, 1k tbn (default)
      Metadata:
        BPS             : 1806851
        DURATION        : 00:49:29.634000000
        NUMBER_OF_FRAMES: 71200
        NUMBER_OF_BYTES : 670711096
        _STATISTICS_WRITING_APP: mkvmerge v66.0.0 ('Josie') 64-bit
        _STATISTICS_WRITING_DATE_UTC: 2024-12-27 10:01:46
        _STATISTICS_TAGS: BPS DURATION NUMBER_OF_FRAMES NUMBER_OF_BYTES
  Stream #1:1(rus): Audio: aac (LC), 48000 Hz, stereo, fltp (default) (forced)
      Metadata:
        title           : Eladiel_Zendos
        BPS             : 192092
        DURATION        : 00:49:29.642000000
        NUMBER_OF_FRAMES: 139202
        NUMBER_OF_BYTES : 71305906
        _STATISTICS_WRITING_APP: mkvmerge v66.0.0 ('Josie') 64-bit
        _STATISTICS_WRITING_DATE_UTC: 2024-12-27 10:01:46
        _STATISTICS_TAGS: BPS DURATION NUMBER_OF_FRAMES NUMBER_OF_BYTES
  Stream #1:2(rus): Subtitle: ass (ssa) (default) (forced)
      Metadata:
        title           : Надписи
        BPS             : 1
        DURATION        : 00:48:39.520000000
        NUMBER_OF_FRAMES: 7
        NUMBER_OF_BYTES : 624
        _STATISTICS_WRITING_APP: mkvmerge v66.0.0 ('Josie') 64-bit
        _STATISTICS_WRITING_DATE_UTC: 2024-12-27 10:01:46
        _STATISTICS_TAGS: BPS DURATION NUMBER_OF_FRAMES NUMBER_OF_BYTES
  Stream #1:3(rus): Subtitle: ass (ssa)
      Metadata:
        title           : Полные
        BPS             : 193
        DURATION        : 00:49:14.750000000
        NUMBER_OF_FRAMES: 789
        NUMBER_OF_BYTES : 71436
        _STATISTICS_WRITING_APP: mkvmerge v66.0.0 ('Josie') 64-bit
        _STATISTICS_WRITING_DATE_UTC: 2024-12-27 10:01:46
        _STATISTICS_TAGS: BPS DURATION NUMBER_OF_FRAMES NUMBER_OF_BYTES
Stream mapping:
  Stream #0:0 (hevc) -> settb:default
  Stream #1:0 (h264) -> settb:default
  psnr:default -> Stream #0:0 (wrapped_avframe)
  Stream #1:1 -> #0:1 (aac (native) -> pcm_s16le (native))
Output #0, null, to 'pipe:':
  Metadata:
    COMPATIBLE_BRANDS: isomiso2avc1mp41
    MAJOR_BRAND     : isom
    MINOR_VERSION   : 512
    encoder         : Lavf61.7.100
  Stream #0:0: Video: wrapped_avframe, yuv420p(tv, progressive), 1280x720 [SAR 1:1 DAR 16:9], q=2-31, 200 kb/s, 23.98 fps, 23.98 tbn
      Metadata:
        encoder         : Lavc61.19.100 wrapped_avframe
  Stream #0:1(rus): Audio: pcm_s16le, 48000 Hz, stereo, s16, 1536 kb/s (default) (forced)
      Metadata:
        title           : Eladiel_Zendos
        BPS             : 192092
        DURATION        : 00:49:29.642000000
        NUMBER_OF_FRAMES: 139202
        NUMBER_OF_BYTES : 71305906
        _STATISTICS_WRITING_APP: mkvmerge v66.0.0 ('Josie') 64-bit
        _STATISTICS_WRITING_DATE_UTC: 2024-12-27 10:01:46
        _STATISTICS_TAGS: BPS DURATION NUMBER_OF_FRAMES NUMBER_OF_BYTES
        encoder         : Lavc61.19.100 pcm_s16le
frame=  412 fps=0.0 q=-0.0 size=N/A time=00:00:17.18 bitrate=N/A speed=32.9x    frame=  999 fps=968 q=-0.0 size=N/A time=00:00:41.66 bitrate=N/A speed=40.4x    frame= 1521 fps=976 q=-0.0 size=N/A time=00:01:03.43 bitrate=N/A speed=40.7x    frame= 2087 fps=1008 q=-0.0 size=N/A time=00:01:27.04 bitrate=N/A speed=42.1x    frame= 2574 fps=997 q=-0.0 size=N/A time=00:01:47.35 bitrate=N/A speed=41.6x    frame= 2923 fps=941 q=-0.0 size=N/A time=00:02:01.91 bitrate=N/A speed=39.3x    frame= 3323 fps=919 q=-0.0 size=N/A time=00:02:18.59 bitrate=N/A speed=38.3x    frame= 3956 fps=959 q=-0.0 size=N/A time=00:02:44.99 bitrate=N/A speed=  40x    frame= 4287 fps=921 q=-0.0 size=N/A time=00:02:58.80 bitrate=N/A speed=38.4x    frame= 4766 fps=923 q=-0.0 size=N/A time=00:03:18.78 bitrate=N/A speed=38.5x    frame= 5385 fps=949 q=-0.0 size=N/A time=00:03:44.59 bitrate=N/A speed=39.6x    frame= 6130 fps=991 q=-0.0 size=N/A time=00:04:15.67 bitrate=N/A speed=41.3x    frame= 6787 fps=1011 q=-0.0 size=N/A time=00:04:43.07 bitrate=N/A speed=42.2x    frame= 7412 fps=1026 q=-0.0 size=N/A time=00:05:09.14 bitrate=N/A speed=42.8x    frame= 7810 fps=1009 q=-0.0 size=N/A time=00:05:25.74 bitrate=N/A speed=42.1x    frame= 8346 fps=1012 q=-0.0 size=N/A time=00:05:48.09 bitrate=N/A speed=42.2x    frame= 8921 fps=1017 q=-0.0 size=N/A time=00:06:12.08 bitrate=N/A speed=42.4x    frame= 9378 fps=1010 q=-0.0 size=N/A time=00:06:31.14 bitrate=N/A speed=42.1x    frame= 9942 fps=1015 q=-0.0 size=N/A time=00:06:54.66 bitrate=N/A speed=42.3x    frame=10493 fps=1016 q=-0.0 size=N/A time=00:07:17.64 bitrate=N/A speed=42.4x    frame=10932 fps=1009 q=-0.0 size=N/A time=00:07:35.95 bitrate=N/A speed=42.1x    frame=11514 fps=1015 q=-0.0 size=N/A time=00:08:00.22 bitrate=N/A speed=42.3x    frame=11947 fps=1006 q=-0.0 size=N/A time=00:08:18.28 bitrate=N/A speed=  42x    frame=12505 fps=1010 q=-0.0 size=N/A time=00:08:41.56 bitrate=N/A speed=42.1x    frame=13041 fps=1011 q=-0.0 size=N/A time=00:09:03.91 bitrate=N/A speed=42.2x    frame=13549 fps=1011 q=-0.0 size=N/A time=00:09:25.10 bitrate=N/A speed=42.2x    frame=14020 fps=1006 q=-0.0 size=N/A time=00:09:44.75 bitrate=N/A speed=  42x    frame=14539 fps=1007 q=-0.0 size=N/A time=00:10:06.39 bitrate=N/A speed=  42x    frame=15103 fps=1010 q=-0.0 size=N/A time=00:10:29.92 bitrate=N/A speed=42.1x    frame=15576 fps=1006 q=-0.0 size=N/A time=00:10:49.64 bitrate=N/A speed=  42x    frame=16002 fps=1001 q=-0.0 size=N/A time=00:11:07.41 bitrate=N/A speed=41.7x    frame=16471 fps=997 q=-0.0 size=N/A time=00:11:26.97 bitrate=N/A speed=41.6x    frame=16939 fps=994 q=-0.0 size=N/A time=00:11:46.49 bitrate=N/A speed=41.5x    frame=17406 fps=992 q=-0.0 size=N/A time=00:12:05.97 bitrate=N/A speed=41.4x    frame=17824 fps=987 q=-0.0 size=N/A time=00:12:23.40 bitrate=N/A speed=41.1x    frame=18141 fps=977 q=-0.0 size=N/A time=00:12:36.63 bitrate=N/A speed=40.7x    frame=18738 fps=981 q=-0.0 size=N/A time=00:13:01.53 bitrate=N/A speed=40.9x    frame=19322 fps=985 q=-0.0 size=N/A time=00:13:25.88 bitrate=N/A speed=41.1x    frame=19708 fps=979 q=-0.0 size=N/A time=00:13:41.98 bitrate=N/A speed=40.8x    frame=20056 fps=971 q=-0.0 size=N/A time=00:13:56.50 bitrate=N/A speed=40.5x    frame=20700 fps=978 q=-0.0 size=N/A time=00:14:23.36 bitrate=N/A speed=40.8x    frame=21297 fps=983 q=-0.0 size=N/A time=00:14:48.26 bitrate=N/A speed=  41x    frame=21773 fps=981 q=-0.0 size=N/A time=00:15:08.11 bitrate=N/A speed=40.9x    frame=22304 fps=982 q=-0.0 size=N/A time=00:15:30.26 bitrate=N/A speed=  41x    frame=22879 fps=985 q=-0.0 size=N/A time=00:15:54.24 bitrate=N/A speed=41.1x    frame=23336 fps=983 q=-0.0 size=N/A time=00:16:13.30 bitrate=N/A speed=  41x    frame=23794 fps=981 q=-0.0 size=N/A time=00:16:32.40 bitrate=N/A speed=40.9x    frame=24230 fps=978 q=-0.0 size=N/A time=00:16:50.59 bitrate=N/A speed=40.8x    frame=24721 fps=978 q=-0.0 size=N/A time=00:17:11.07 bitrate=N/A speed=40.8x    frame=25188 fps=976 q=-0.0 size=N/A time=00:17:30.54 bitrate=N/A speed=40.7x    frame=25561 fps=971 q=-0.0 size=N/A time=00:17:46.10 bitrate=N/A speed=40.5x    frame=25987 fps=968 q=-0.0 size=N/A time=00:18:03.87 bitrate=N/A speed=40.4x    frame=26322 fps=963 q=-0.0 size=N/A time=00:18:17.84 bitrate=N/A speed=40.2x    frame=26949 fps=967 q=-0.0 size=N/A time=00:18:43.99 bitrate=N/A speed=40.3x    frame=27611 fps=973 q=-0.0 size=N/A time=00:19:11.60 bitrate=N/A speed=40.6x    frame=28203 fps=976 q=-0.0 size=N/A time=00:19:36.30 bitrate=N/A speed=40.7x    frame=28703 fps=976 q=-0.0 size=N/A time=00:19:57.19 bitrate=N/A speed=40.7x    frame=29176 fps=975 q=-0.0 size=N/A time=00:20:16.88 bitrate=N/A speed=40.7x    frame=29711 fps=976 q=-0.0 size=N/A time=00:20:39.19 bitrate=N/A speed=40.7x    frame=30266 fps=977 q=-0.0 size=N/A time=00:21:02.34 bitrate=N/A speed=40.8x    frame=30775 fps=978 q=-0.0 size=N/A time=00:21:23.57 bitrate=N/A speed=40.8x    frame=31347 fps=980 q=-0.0 size=N/A time=00:21:47.43 bitrate=N/A speed=40.9x    frame=31851 fps=980 q=-0.0 size=N/A time=00:22:08.45 bitrate=N/A speed=40.9x    frame=32235 fps=976 q=-0.0 size=N/A time=00:22:24.46 bitrate=N/A speed=40.7x    frame=32717 fps=976 q=-0.0 size=N/A time=00:22:44.57 bitrate=N/A speed=40.7x    frame=33321 fps=978 q=-0.0 size=N/A time=00:23:09.76 bitrate=N/A speed=40.8x    frame=33938 fps=982 q=-0.0 size=N/A time=00:23:35.49 bitrate=N/A speed=  41x    frame=34436 fps=982 q=-0.0 size=N/A time=00:23:56.26 bitrate=N/A speed=40.9x    frame=34766 fps=977 q=-0.0 size=N/A time=00:24:10.03 bitrate=N/A speed=40.7x    frame=35190 fps=974 q=-0.0 size=N/A time=00:24:27.71 bitrate=N/A speed=40.6x    frame=35719 fps=975 q=-0.0 size=N/A time=00:24:49.77 bitrate=N/A speed=40.7x    frame=36088 fps=972 q=-0.0 size=N/A time=00:25:05.17 bitrate=N/A speed=40.5x    frame=36615 fps=972 q=-0.0 size=N/A time=00:25:27.15 bitrate=N/A speed=40.5x    frame=37263 fps=976 q=-0.0 size=N/A time=00:25:54.17 bitrate=N/A speed=40.7x    frame=37761 fps=976 q=-0.0 size=N/A time=00:26:14.94 bitrate=N/A speed=40.7x    frame=38315 fps=977 q=-0.0 size=N/A time=00:26:38.05 bitrate=N/A speed=40.8x    frame=38775 fps=976 q=-0.0 size=N/A time=00:26:57.24 bitrate=N/A speed=40.7x    frame=39243 fps=975 q=-0.0 size=N/A time=00:27:16.76 bitrate=N/A speed=40.7x    frame=39669 fps=973 q=-0.0 size=N/A time=00:27:34.52 bitrate=N/A speed=40.6x    frame=40170 fps=973 q=-0.0 size=N/A time=00:27:55.42 bitrate=N/A speed=40.6x    frame=40689 fps=974 q=-0.0 size=N/A time=00:28:17.07 bitrate=N/A speed=40.6x    frame=41222 fps=975 q=-0.0 size=N/A time=00:28:39.30 bitrate=N/A speed=40.6x    frame=41672 fps=973 q=-0.0 size=N/A time=00:28:58.06 bitrate=N/A speed=40.6x    frame=42125 fps=972 q=-0.0 size=N/A time=00:29:16.96 bitrate=N/A speed=40.5x    frame=42577 fps=971 q=-0.0 size=N/A time=00:29:35.81 bitrate=N/A speed=40.5x    frame=42992 fps=969 q=-0.0 size=N/A time=00:29:53.12 bitrate=N/A speed=40.4x    frame=43325 fps=965 q=-0.0 size=N/A time=00:30:07.01 bitrate=N/A speed=40.3x    frame=43808 fps=965 q=-0.0 size=N/A time=00:30:27.15 bitrate=N/A speed=40.2x    frame=44395 fps=967 q=-0.0 size=N/A time=00:30:51.64 bitrate=N/A speed=40.3x    frame=44929 fps=968 q=-0.0 size=N/A time=00:31:13.91 bitrate=N/A speed=40.4x    frame=45441 fps=968 q=-0.0 size=N/A time=00:31:35.26 bitrate=N/A speed=40.4x    frame=45915 fps=967 q=-0.0 size=N/A time=00:31:55.03 bitrate=N/A speed=40.3x    frame=46435 fps=968 q=-0.0 size=N/A time=00:32:16.72 bitrate=N/A speed=40.4x    frame=47087 fps=971 q=-0.0 size=N/A time=00:32:43.92 bitrate=N/A speed=40.5x    frame=47600 fps=971 q=-0.0 size=N/A time=00:33:05.31 bitrate=N/A speed=40.5x    frame=48165 fps=973 q=-0.0 size=N/A time=00:33:28.88 bitrate=N/A speed=40.6x    frame=48615 fps=972 q=-0.0 size=N/A time=00:33:47.65 bitrate=N/A speed=40.5x    frame=49114 fps=971 q=-0.0 size=N/A time=00:34:08.46 bitrate=N/A speed=40.5x    frame=49543 fps=970 q=-0.0 size=N/A time=00:34:26.35 bitrate=N/A speed=40.5x    frame=49996 fps=969 q=-0.0 size=N/A time=00:34:45.24 bitrate=N/A speed=40.4x    frame=50419 fps=968 q=-0.0 size=N/A time=00:35:02.89 bitrate=N/A speed=40.4x    frame=50768 fps=965 q=-0.0 size=N/A time=00:35:17.44 bitrate=N/A speed=40.2x    frame=51179 fps=963 q=-0.0 size=N/A time=00:35:34.59 bitrate=N/A speed=40.2x    frame=51641 fps=963 q=-0.0 size=N/A time=00:35:53.86 bitrate=N/A speed=40.1x    frame=52141 fps=963 q=-0.0 size=N/A time=00:36:14.71 bitrate=N/A speed=40.2x    frame=52703 fps=964 q=-0.0 size=N/A time=00:36:38.15 bitrate=N/A speed=40.2x    frame=53196 fps=964 q=-0.0 size=N/A time=00:36:58.71 bitrate=N/A speed=40.2x    frame=53652 fps=963 q=-0.0 size=N/A time=00:37:17.73 bitrate=N/A speed=40.2x    frame=54145 fps=963 q=-0.0 size=N/A time=00:37:38.29 bitrate=N/A speed=40.2x    frame=54645 fps=963 q=-0.0 size=N/A time=00:37:59.15 bitrate=N/A speed=40.2x    frame=55216 fps=964 q=-0.0 size=N/A time=00:38:22.96 bitrate=N/A speed=40.2x    frame=55659 fps=963 q=-0.0 size=N/A time=00:38:41.44 bitrate=N/A speed=40.2x    frame=56131 fps=963 q=-0.0 size=N/A time=00:39:01.13 bitrate=N/A speed=40.2x    frame=56581 fps=962 q=-0.0 size=N/A time=00:39:19.89 bitrate=N/A speed=40.1x    frame=57044 fps=962 q=-0.0 size=N/A time=00:39:39.21 bitrate=N/A speed=40.1x    frame=57482 fps=961 q=-0.0 size=N/A time=00:39:57.47 bitrate=N/A speed=40.1x    frame=57935 fps=960 q=-0.0 size=N/A time=00:40:16.37 bitrate=N/A speed=  40x    frame=58337 fps=958 q=-0.0 size=N/A time=00:40:33.13 bitrate=N/A speed=  40x    frame=58811 fps=958 q=-0.0 size=N/A time=00:40:52.90 bitrate=N/A speed=  40x    frame=59272 fps=958 q=-0.0 size=N/A time=00:41:12.13 bitrate=N/A speed=39.9x    frame=59757 fps=957 q=-0.0 size=N/A time=00:41:32.36 bitrate=N/A speed=39.9x    frame=60184 fps=956 q=-0.0 size=N/A time=00:41:50.17 bitrate=N/A speed=39.9x    frame=60659 fps=956 q=-0.0 size=N/A time=00:42:09.98 bitrate=N/A speed=39.9x    frame=61103 fps=955 q=-0.0 size=N/A time=00:42:28.50 bitrate=N/A speed=39.8x    frame=61523 fps=954 q=-0.0 size=N/A time=00:42:46.02 bitrate=N/A speed=39.8x    frame=62094 fps=955 q=-0.0 size=N/A time=00:43:09.83 bitrate=N/A speed=39.9x    frame=62520 fps=954 q=-0.0 size=N/A time=00:43:27.60 bitrate=N/A speed=39.8x    frame=62944 fps=953 q=-0.0 size=N/A time=00:43:45.28 bitrate=N/A speed=39.8x    frame=63396 fps=953 q=-0.0 size=N/A time=00:44:04.14 bitrate=N/A speed=39.7x    frame=63895 fps=953 q=-0.0 size=N/A time=00:44:24.95 bitrate=N/A speed=39.7x    frame=64426 fps=953 q=-0.0 size=N/A time=00:44:47.10 bitrate=N/A speed=39.8x    frame=64788 fps=952 q=-0.0 size=N/A time=00:45:02.19 bitrate=N/A speed=39.7x    frame=65292 fps=952 q=-0.0 size=N/A time=00:45:23.22 bitrate=N/A speed=39.7x    frame=65804 fps=952 q=-0.0 size=N/A time=00:45:44.57 bitrate=N/A speed=39.7x    frame=66289 fps=952 q=-0.0 size=N/A time=00:46:04.80 bitrate=N/A speed=39.7x    frame=66806 fps=952 q=-0.0 size=N/A time=00:46:26.36 bitrate=N/A speed=39.7x    frame=67308 fps=953 q=-0.0 size=N/A time=00:46:47.30 bitrate=N/A speed=39.7x    frame=67845 fps=953 q=-0.0 size=N/A time=00:47:09.70 bitrate=N/A speed=39.8x    frame=68298 fps=953 q=-0.0 size=N/A time=00:47:28.59 bitrate=N/A speed=39.7x    frame=68718 fps=952 q=-0.0 size=N/A time=00:47:46.11 bitrate=N/A speed=39.7x    frame=69236 fps=952 q=-0.0 size=N/A time=00:48:07.71 bitrate=N/A speed=39.7x    frame=69669 fps=951 q=-0.0 size=N/A time=00:48:25.77 bitrate=N/A speed=39.7x    frame=70267 fps=953 q=-0.0 size=N/A time=00:48:50.71 bitrate=N/A speed=39.7x    frame=70843 fps=954 q=-0.0 size=N/A time=00:49:14.74 bitrate=N/A speed=39.8x    [Parsed_psnr_10 @ 00000291530b3e00] PSNR y:50.114016 u:52.930408 v:53.616750 average:50.932635 min:35.781315 max:84.694142
[out#0/null @ 000002914e8bde40] video:30594KiB audio:556808KiB subtitle:0KiB other streams:0KiB global headers:0KiB muxing overhead: unknown
frame=71200 fps=955 q=-0.0 Lsize=N/A time=00:49:29.63 bitrate=N/A speed=39.8x    
